<svg version="1.2" xmlns="http://www.w3.org/2000/svg" viewBox="0 0 412 225" width="412" height="225">
	<style>
		.s0 { fill: #0c3f88 } 
		.s1 { fill: #f78d1e } 
		.s2 { fill: none;stroke: #ffffff;stroke-miterlimit:22.9256;stroke-width: .6 } 
	</style>
	<g id="surface1">
		<path class="s0" d="m198.1 211.47q-1.41 0-2.64-0.38-1.23-0.37-2.03-0.8v-2.65h0.12q0.3 0.24 0.71 0.53 0.41 0.3 1.09 0.61 0.6 0.28 1.32 0.49 0.72 0.22 1.49 0.22 0.57 0 1.21-0.13 0.64-0.13 0.95-0.34 0.44-0.29 0.63-0.61 0.2-0.33 0.2-0.99 0-0.84-0.45-1.27-0.46-0.42-1.61-0.72-0.45-0.11-1.19-0.25-0.73-0.15-1.35-0.32-1.61-0.47-2.34-1.44-0.73-0.97-0.73-2.35 0-1.89 1.43-3.09 1.44-1.18 3.82-1.18 1.18 0 2.36 0.29 1.19 0.28 2 0.73v2.52h-0.13q-0.9-0.72-2.01-1.14-1.11-0.43-2.25-0.43-1.16 0-1.96 0.5-0.81 0.49-0.81 1.48 0 0.88 0.48 1.31 0.47 0.43 1.5 0.71 0.53 0.14 1.19 0.27 0.64 0.14 1.36 0.31 1.57 0.39 2.36 1.29 0.78 0.9 0.78 2.45 0 0.91-0.35 1.71-0.36 0.81-1.06 1.39-0.76 0.62-1.7 0.95-0.95 0.33-2.39 0.33zm18.71-0.31h-2.38v-1.56q-1.09 0.95-2.08 1.45-0.98 0.5-2.19 0.5-0.92 0-1.73-0.3-0.82-0.31-1.43-0.96-0.6-0.65-0.93-1.64-0.34-0.99-0.34-2.41v-9.08h2.38v7.97q0 1.12 0.08 1.85 0.08 0.73 0.37 1.29 0.29 0.54 0.78 0.79 0.51 0.25 1.44 0.25 0.87 0 1.85-0.49 0.99-0.49 1.8-1.21v-10.45h2.38zm7.22 0.3q-1.41 0.01-2.64-0.37-1.22-0.38-2.03-0.81v-2.64h0.12q0.31 0.23 0.72 0.53 0.4 0.29 1.08 0.6 0.6 0.29 1.32 0.5 0.72 0.22 1.5 0.21 0.56 0.01 1.2-0.13 0.64-0.13 0.95-0.33 0.44-0.29 0.64-0.62 0.19-0.33 0.19-0.98 0-0.84-0.45-1.28-0.46-0.42-1.61-0.71-0.45-0.12-1.18-0.26-0.74-0.14-1.36-0.32-1.6-0.46-2.34-1.43-0.73-0.97-0.73-2.35 0-1.89 1.44-3.09 1.44-1.19 3.82-1.19 1.17 0 2.36 0.29 1.18 0.29 1.99 0.73v2.53h-0.13q-0.9-0.73-2.01-1.15-1.11-0.42-2.24-0.42-1.17 0-1.97 0.49-0.81 0.49-0.81 1.49 0 0.88 0.48 1.31 0.47 0.43 1.51 0.71 0.53 0.14 1.18 0.27 0.64 0.13 1.37 0.3 1.56 0.4 2.35 1.29 0.79 0.91 0.79 2.46-0.01 0.91-0.36 1.71-0.36 0.81-1.06 1.39-0.75 0.62-1.7 0.95-0.95 0.32-2.39 0.32zm27.64-7.54q0 3.44-1.69 5.53-1.68 2.09-4.21 2.09-1.15 0-1.97-0.28-0.81-0.28-1.61-0.76l-0.15 0.66h-2.23v-19.53h2.38v7q0.9-0.81 1.95-1.34 1.05-0.52 2.38-0.52 2.39 0 3.77 1.89 1.38 1.9 1.38 5.26zm-2.46 0.18q0-2.51-0.77-3.8-0.77-1.3-2.48-1.3-0.98 0-1.97 0.46-0.99 0.45-1.8 1.14v8.02q0.9 0.43 1.6 0.61 0.69 0.18 1.52 0.18 1.83 0 2.87-1.28 1.03-1.28 1.03-4.03zm15.88 7.06h-2.38v-1.56q-1.09 0.95-2.08 1.44-0.98 0.5-2.19 0.5-0.92 0-1.74-0.3-0.81-0.3-1.42-0.95-0.61-0.65-0.94-1.65-0.33-0.99-0.33-2.4v-9.09h2.38v7.98q-0.01 1.11 0.07 1.85 0.09 0.73 0.38 1.29 0.29 0.53 0.79 0.78 0.5 0.25 1.43 0.25 0.87 0 1.85-0.49 0.98-0.49 1.8-1.21v-10.45h2.38zm9.52 0.31q-3.37 0-5.24-1.88-1.86-1.89-1.86-5.36 0-3.41 1.81-5.43 1.8-2.03 4.72-2.03 1.32 0 2.32 0.38 1.02 0.37 1.77 1.18 0.76 0.8 1.17 1.96 0.4 1.16 0.4 2.83v1.28h-9.79q0 2.44 1.24 3.72 1.24 1.3 3.43 1.29 0.78 0 1.54-0.17 0.75-0.17 1.36-0.46 0.65-0.28 1.09-0.55 0.44-0.27 0.73-0.51h0.14v2.57q-0.42 0.17-1.04 0.41-0.61 0.24-1.11 0.38-0.69 0.19-1.25 0.29-0.57 0.1-1.43 0.1zm2.79-8.86q-0.03-0.96-0.23-1.64-0.2-0.7-0.58-1.17-0.42-0.52-1.07-0.8-0.65-0.28-1.62-0.28-0.95 0-1.61 0.29-0.67 0.28-1.21 0.82-0.54 0.55-0.81 1.22-0.28 0.66-0.36 1.56zm15.76 8.55h-2.37v-7.98q0-0.96-0.1-1.79-0.09-0.84-0.36-1.34-0.29-0.53-0.8-0.79-0.52-0.25-1.42-0.25-0.88 0-1.82 0.47-0.93 0.47-1.83 1.22v10.46h-2.38v-14h2.38v1.56q1.06-0.95 2.09-1.44 1.04-0.51 2.18-0.51 2.09 0 3.26 1.37 1.17 1.35 1.17 3.93zm14.92-7q0 3.54-1.71 5.46-1.72 1.93-4.56 1.93-2.94 0-4.62-1.99-1.69-1.98-1.68-5.4 0-3.5 1.73-5.44 1.73-1.95 4.57-1.95 2.84 0 4.56 1.94 1.71 1.94 1.71 5.45zm-2.45 0q0-2.7-1-4.02-0.99-1.31-2.82-1.31-1.85 0-2.85 1.31-1 1.32-1 4.02 0 2.63 1 3.98 1 1.35 2.85 1.35 1.82 0 2.82-1.33 1-1.33 1-4zm8.7 7.31q-1.41 0-2.64-0.38-1.23-0.37-2.03-0.8v-2.65h0.12q0.31 0.24 0.71 0.53 0.41 0.3 1.09 0.61 0.6 0.28 1.32 0.5 0.72 0.21 1.5 0.21 0.56 0 1.2-0.13 0.64-0.13 0.96-0.33 0.44-0.3 0.63-0.62 0.19-0.33 0.19-0.99 0-0.84-0.45-1.27-0.45-0.42-1.61-0.71-0.45-0.12-1.19-0.26-0.72-0.15-1.35-0.32-1.61-0.47-2.34-1.44-0.73-0.97-0.73-2.35 0-1.89 1.44-3.08 1.43-1.19 3.82-1.19 1.17 0 2.36 0.29 1.18 0.29 1.99 0.73v2.53h-0.13q-0.9-0.73-2.01-1.15-1.11-0.42-2.24-0.42-1.17 0-1.97 0.49-0.81 0.49-0.8 1.48-0.01 0.88 0.47 1.31 0.47 0.44 1.51 0.72 0.53 0.13 1.18 0.26 0.65 0.14 1.37 0.31 1.56 0.39 2.35 1.29 0.79 0.91 0.79 2.46 0 0.9-0.36 1.71-0.36 0.8-1.06 1.38-0.75 0.63-1.7 0.96-0.95 0.32-2.39 0.32zm26.86-14.31l-5.31 14h-2.13l-5.27-14h2.55l3.85 10.8 3.83-10.8zm7.7 14.31q-3.37 0-5.24-1.88-1.86-1.89-1.86-5.36 0-3.41 1.8-5.43 1.81-2.03 4.73-2.03 1.31 0 2.32 0.38 1.02 0.37 1.77 1.18 0.76 0.8 1.16 1.96 0.41 1.16 0.41 2.83v1.28h-9.79q0 2.44 1.24 3.72 1.24 1.3 3.43 1.29 0.78 0 1.54-0.17 0.75-0.17 1.36-0.46 0.64-0.28 1.08-0.55 0.45-0.27 0.74-0.51h0.14v2.57q-0.42 0.17-1.04 0.41-0.62 0.24-1.11 0.38-0.69 0.19-1.26 0.29-0.56 0.1-1.42 0.1zm2.79-8.86q-0.03-0.96-0.23-1.64-0.2-0.7-0.58-1.17-0.42-0.52-1.07-0.8-0.66-0.28-1.62-0.27-0.95-0.01-1.62 0.28-0.66 0.28-1.21 0.82-0.53 0.55-0.81 1.22-0.28 0.66-0.35 1.56zm10.28 8.86q-1.45 0-2.66-0.44-1.21-0.45-2.09-1.36-0.87-0.89-1.35-2.27-0.48-1.37-0.48-3.23 0-1.84 0.5-3.18 0.5-1.34 1.33-2.26 0.84-0.91 2.08-1.41 1.24-0.5 2.67-0.5 1.16 0 2.24 0.33 1.08 0.33 1.93 0.75v2.65h-0.14q-0.26-0.21-0.66-0.49-0.39-0.27-0.96-0.56-0.49-0.24-1.16-0.43-0.67-0.19-1.29-0.19-1.85 0-2.96 1.38-1.12 1.38-1.13 3.91 0.01 2.48 1.09 3.86 1.08 1.38 3 1.38 1.16 0 2.21-0.47 1.05-0.47 1.86-1.22h0.14v2.65q-0.36 0.16-0.88 0.39-0.54 0.23-0.97 0.35-0.6 0.17-1.08 0.27-0.48 0.09-1.24 0.09zm8.78-0.31h-2.38v-14h2.38zm0.18-16.37h-2.71v-2.44h2.71zm14.34 16.37h-2.37v-7.98q0-0.97-0.09-1.8-0.1-0.84-0.36-1.34-0.29-0.52-0.81-0.78-0.52-0.26-1.41-0.26-0.88 0-1.82 0.47-0.94 0.47-1.84 1.23v10.46h-2.37v-14.01h2.37v1.56q1.06-0.94 2.1-1.44 1.03-0.5 2.17-0.5 2.09 0 3.26 1.36 1.17 1.36 1.17 3.94zm14.93-7q0 3.54-1.72 5.46-1.71 1.92-4.56 1.92-2.94 0-4.62-1.98-1.68-1.99-1.68-5.4 0-3.51 1.73-5.45 1.74-1.94 4.57-1.94 2.85 0 4.56 1.93 1.72 1.94 1.72 5.46zm-2.46 0q0-2.7-0.99-4.02-1-1.32-2.83-1.32-1.85 0-2.85 1.32-1 1.32-1 4.02 0 2.62 1 3.97 1 1.36 2.85 1.36 1.82 0 2.82-1.33 1-1.33 1-4zm8.7 7.31q-1.4 0-2.63-0.38-1.23-0.38-2.04-0.81v-2.64h0.13q0.3 0.23 0.71 0.53 0.4 0.29 1.08 0.6 0.6 0.29 1.32 0.5 0.73 0.22 1.5 0.22 0.56 0 1.2-0.14 0.64-0.13 0.96-0.33 0.44-0.29 0.63-0.62 0.19-0.33 0.19-0.98 0-0.84-0.45-1.27-0.45-0.43-1.6-0.72-0.45-0.12-1.19-0.26-0.73-0.14-1.35-0.32-1.61-0.46-2.34-1.43-0.74-0.97-0.73-2.35-0.01-1.89 1.43-3.09 1.44-1.18 3.82-1.19 1.18 0.01 2.36 0.29 1.19 0.29 1.99 0.73v2.53h-0.12q-0.91-0.73-2.02-1.15-1.11-0.42-2.24-0.42-1.17 0-1.97 0.49-0.8 0.49-0.8 1.49 0 0.88 0.47 1.31 0.47 0.43 1.51 0.71 0.53 0.14 1.18 0.27 0.65 0.13 1.37 0.3 1.57 0.4 2.35 1.29 0.79 0.91 0.79 2.46 0 0.91-0.36 1.71-0.36 0.81-1.05 1.39-0.76 0.62-1.71 0.95-0.95 0.32-2.39 0.33z"/>
		<path class="s1" d="m236.34 220.76c16.82-5.21 37.23-4.35 59.03-3.44 8.63 0.36 17.49 0.73 26.52 0.73v2.11c-8.91 0-17.87-0.38-26.6-0.74-21.61-0.9-41.85-1.75-58.33 3.35z"/>
		<path class="s0" d="m411.43 169.46h-9.81v-43.64h9.81zm-26.84-3.34q-1.01 0.85-1.8 1.53-0.8 0.65-2.15 1.33-1.31 0.65-2.56 0.99-1.25 0.33-3.49 0.33-4.19 0-6.95-2.8-2.76-2.79-2.76-7.07 0-3.5 1.41-5.66 1.39-2.16 4.03-3.42 2.67-1.29 6.37-1.8 3.71-0.49 7.97-0.78v-0.18q-0.01-2.6-1.93-3.59-1.93-0.99-5.76-1-1.74 0-4.07 0.64-2.32 0.63-4.54 1.61h-0.84v-7.61q1.46-0.41 4.7-0.99 3.26-0.58 6.57-0.58 8.14 0 11.85 2.71 3.72 2.7 3.72 8.27v21.41h-9.77zm0-4.87v-6.56q-2.49 0.25-4.03 0.43-1.54 0.18-3.04 0.71-1.28 0.45-2 1.36-0.71 0.91-0.71 2.43 0 2.21 1.19 3.05 1.19 0.82 3.52 0.83 1.29-0.01 2.64-0.6c0.9-0.41 1.71-0.94 2.43-1.65zm-21.11-14h-0.8q-0.57-0.2-1.63-0.3-1.08-0.09-2.36-0.09-1.55 0-3.25 0.45-1.69 0.44-3.29 1.05v21.1h-9.8v-31.48h9.8v4.5q0.67-0.62 1.87-1.56 1.19-0.93 2.17-1.49 1.07-0.64 2.48-1.11 1.42-0.46 2.68-0.46 0.48 0 1.07 0.03 0.59 0.03 1.06 0.09zm-39.12 23.05q-8.92 0.01-13.67-4.25-4.75-4.27-4.76-12.15 0-7.71 4.43-12.31 4.43-4.6 12.4-4.6 7.23 0 10.88 3.88 3.65 3.92 3.65 11.19v3.52h-21.52q0.15 2.19 0.93 3.66 0.78 1.47 2.07 2.35 1.26 0.87 2.94 1.25 1.69 0.38 3.68 0.37 1.71 0.01 3.38-0.37 1.65-0.39 3.02-1.01 1.21-0.53 2.23-1.14 1.03-0.62 1.67-1.1h1.03v8.11q-1.21 0.48-2.2 0.88-0.99 0.41-2.73 0.83-1.6 0.42-3.3 0.66-1.7 0.24-4.13 0.23zm3.25-20.62q-0.08-3.12-1.44-4.76-1.37-1.62-4.17-1.62-2.86 0-4.47 1.71-1.62 1.71-1.78 4.67zm-26.64 19.78h-9.87v-15.62q0.01-1.9-0.15-3.8-0.16-1.89-0.57-2.78-0.51-1.07-1.47-1.53-0.95-0.46-2.54-0.46-1.2 0-2.44 0.44-1.24 0.46-2.65 1.43v22.32h-9.8v-31.48h9.8v3.47q2.41-2.05 4.7-3.2 2.28-1.14 5.07-1.14 4.82-0.01 7.37 3.04 2.55 3.04 2.55 8.81zm-47.48 0.84q-8.91 0.01-13.67-4.25-4.75-4.27-4.75-12.15-0.01-7.71 4.43-12.31 4.42-4.6 12.39-4.6 7.24 0 10.88 3.88 3.65 3.92 3.64 11.19v3.52h-21.5q0.13 2.19 0.93 3.66 0.77 1.47 2.07 2.35 1.25 0.87 2.93 1.25 1.69 0.38 3.69 0.37 1.71 0.01 3.37-0.37 1.65-0.39 3.02-1.01 1.2-0.53 2.23-1.14 1.02-0.62 1.67-1.1h1.04v8.11q-1.21 0.48-2.21 0.88-0.99 0.41-2.73 0.83-1.6 0.42-3.29 0.66-1.7 0.24-4.14 0.23zm3.26-20.62q-0.09-3.12-1.45-4.76-1.36-1.62-4.16-1.62-2.87 0-4.48 1.71-1.61 1.71-1.78 4.67zm-26.73 17.4q-2.74 1.12-7.13 2.19-4.39 1.06-8.66 1.06-9.84 0-15.68-5.67-5.86-5.69-5.86-16.11 0-9.82 5.86-15.73 5.83-5.92 15.98-5.92 5.25 0 8.54 0.99 3.28 1 6.78 2.72v9.79h-0.96q-0.75-0.6-2.16-1.68-1.41-1.09-2.77-1.83-1.57-0.91-3.63-1.55-2.05-0.65-4.36-0.65-2.7 0-4.91 0.84-2.21 0.84-3.95 2.58-1.65 1.69-2.63 4.27-0.96 2.57-0.96 5.99 0 7.33 3.67 10.81 3.68 3.47 10.04 3.47 0.57 0 1.32-0.02 0.76-0.04 1.32-0.1v-8.18h-8.11v-7.82h18.26zm-57.49-13.35q0 7.77-4.24 12.25-4.25 4.47-12.01 4.47-7.72 0-12-4.47-4.27-4.48-4.27-12.25 0-7.85 4.27-12.3 4.28-4.44 12-4.44 7.73 0 12 4.47 4.25 4.47 4.25 12.27zm-10.06 0.05q0-2.8-0.45-4.67-0.48-1.86-1.29-2.99-0.86-1.17-1.96-1.64-1.1-0.45-2.49-0.46-1.32 0-2.39 0.41-1.07 0.41-1.96 1.55-0.85 1.1-1.35 3.01-0.5 1.92-0.5 4.79 0 2.9 0.48 4.69 0.46 1.77 1.23 2.84 0.78 1.09 1.96 1.6 1.18 0.5 2.6 0.5 1.19 0 2.41-0.5 1.21-0.51 1.93-1.52 0.89-1.2 1.33-2.91 0.45-1.7 0.45-4.7zm-34.99 16.52q-3.91 0.01-7.14-0.98-3.24-0.98-5.63-3.02-2.35-2.06-3.66-5.16-1.32-3.08-1.32-7.3 0-4.51 1.42-7.68 1.44-3.17 3.87-5.23 2.37-1.94 5.54-2.89 3.18-0.93 6.63-0.94 2.61 0 5.22 0.61 2.61 0.6 5.25 1.92v8.42h-1.28q-0.58-0.57-1.44-1.24-0.85-0.68-1.85-1.24-1.08-0.59-2.41-0.99-1.36-0.42-3.01-0.42-3.76 0-5.82 2.63-2.05 2.62-2.06 7.05 0.01 4.75 2.2 7.08 2.21 2.32 5.86 2.32 1.84 0 3.24-0.41 1.41-0.43 2.41-1.02 0.98-0.6 1.68-1.22 0.71-0.63 1.2-1.14h1.28v8.41q-0.86 0.37-1.96 0.85-1.1 0.48-2.25 0.78-1.43 0.38-2.68 0.6-1.25 0.22-3.29 0.21zm-22.71-0.84h-9.87v-15.62q0-1.9-0.16-3.8-0.14-1.89-0.56-2.78-0.51-1.07-1.47-1.53-0.95-0.46-2.55-0.46-1.21 0-2.44 0.44-1.24 0.45-2.64 1.43v22.32h-9.81v-31.48h9.81v3.47q2.41-2.05 4.7-3.2 2.27-1.14 5.07-1.15 4.82 0 7.36 3.05 2.56 3.04 2.56 8.81zm-46.53-3.34q-1 0.85-1.81 1.53-0.8 0.65-2.14 1.33-1.32 0.65-2.57 0.99-1.24 0.33-3.49 0.33-4.17 0-6.94-2.8-2.77-2.79-2.76-7.07 0-3.5 1.41-5.66 1.39-2.16 4.02-3.42 2.67-1.29 6.38-1.8 3.7-0.49 7.96-0.78v-0.18q0-2.6-1.93-3.59-1.92-0.99-5.75-1-1.75 0-4.07 0.64-2.34 0.63-4.55 1.6h-0.84v-7.6q1.46-0.41 4.71-0.99 3.25-0.58 6.56-0.58 8.15 0 11.86 2.71 3.72 2.7 3.71 8.27v21.41h-9.76zm0-4.88v-6.55q-2.5 0.25-4.03 0.43-1.55 0.18-3.04 0.71-1.29 0.45-2 1.36-0.72 0.91-0.72 2.43 0 2.21 1.2 3.05 1.18 0.82 3.52 0.82 1.28 0 2.63-0.59c0.9-0.41 1.72-0.94 2.44-1.66zm-22.8-4.57q0.01 3.12-1.17 5.48-1.17 2.35-3.17 3.9-2.36 1.84-5.18 2.63-2.82 0.78-7.15 0.78h-16.72v-41.75h14.75q4.59 0 6.96 0.36 2.39 0.34 4.45 1.46 2.24 1.21 3.35 3.23 1.11 2.02 1.11 4.66 0 3.06-1.53 5.44-1.53 2.37-4.21 3.51v0.22q3.86 0.81 6.19 3.32 2.33 2.51 2.32 6.76zm-13.42-17.15q0-1.01-0.52-2.07-0.51-1.07-1.62-1.54-1.02-0.46-2.45-0.5-1.42-0.04-4.22-0.04h-0.72v8.84h1.31q2.7-0.01 3.78-0.07 1.07-0.04 2.23-0.58 1.25-0.59 1.73-1.62 0.48-1.05 0.48-2.42zm2.63 16.97q0-1.94-0.79-3.03-0.78-1.1-2.35-1.66-0.95-0.37-2.62-0.41-1.67-0.04-4.48-0.04h-1.92v10.46h0.56q4.09 0 5.65-0.06 1.58-0.06 3.2-0.76 1.43-0.62 2.08-1.81 0.67-1.19 0.67-2.69z"/>
		<path fill-rule="evenodd" class="s0" d="m280.16 19.95h17.57l5.44-16.72 5.43 16.72h17.58l-14.2 10.34 5.43 16.73-14.24-10.34-14.24 10.34 5.43-16.73zm17.05 1.61h-12.49l10.1 7.36zm14.33 7.34l10.1-7.35h-12.5z"/>
		<path fill-rule="evenodd" class="s0" d="m253.81 72.49l5.44-16.71-14.21-10.35 17.57 0.02 5.45-16.71 5.44 16.7 17.58 0.01-14.24 10.33 5.43 16.75-14.22-10.34zm6.81-15.71l-3.87 11.87 10.12-7.32zm11.41-11.35l-3.87-11.88-3.86 11.88z"/>
		<path fill-rule="evenodd" class="s0" d="m338.29 62.19l-14.23 10.33 5.42-16.74-14.23-10.33 17.58-0.01 5.45-16.71 5.43 16.71 17.58-0.01-14.21 10.35 5.44 16.7zm1.16-0.86l10.12 7.32-3.87-11.87zm2.57-15.9l-3.86-11.88-3.87 11.88z"/>
		<path fill-rule="evenodd" class="s0" d="m315.83 97.6l-13.93-10.32 17.34-0.01 5.48-16.72 5.39 16.73 17.57 0.07-14.25 10.29 5.39 16.74-14.2-10.36-14.23 10.28zm1.18 0.85l-3.88 11.88 10.12-7.33zm15.93-2.41l10.12-7.33-12.49-0.05z"/>
		<path fill-rule="evenodd" class="s0" d="m295.95 114.32l-14.24-10.29-14.21 10.36 5.4-16.73-14.24-10.29 17.56-0.07 5.39-16.73 5.5 16.72h17.37l-13.98 10.33zm-12.87-11.29l10.12 7.31-3.88-11.87zm-7.31-14.35l-12.5 0.05 10.13 7.32z"/>
		<path class="s2" d="m-15.59-109.59h445.18v445.18h-445.18z"/>
	</g>
</svg>